<svg xmlns="http://www.w3.org/2000/svg" width="30.999" height="31.001" viewBox="0 0 30.999 31.001">
  <path id="facebook" d="M-37-8499h0a14.9,14.9,0,0,1-10.606-4.393A14.9,14.9,0,0,1-52-8514a14.9,14.9,0,0,1,4.393-10.607A14.9,14.9,0,0,1-37-8529a14.9,14.9,0,0,1,10.606,4.394A14.9,14.9,0,0,1-22-8514a14.9,14.9,0,0,1-4.393,10.607A14.9,14.9,0,0,1-37-8499Zm-2.286-15.039v9.105h3.65v-9.144h2.549l.272-3.062h-2.821v-1.744c0-.7.122-1.006.843-1.006h1.978v-3.179h-2.53c-2.652,0-3.941,1.142-3.941,3.489v2.439h-1.9v3.1Z" transform="translate(52.499 8529.501)" fill="#fff" stroke="rgba(0,0,0,0)" stroke-miterlimit="10" stroke-width="1"/>
</svg>
