<svg xmlns="http://www.w3.org/2000/svg" id="artboard-svg" width="73" height="82" viewBox="0 0 73 82"><defs><style>.cls-1 { clip-path: url(#clip-resultado_de_búsqueda_nulo); } .cls-2 { fill: #312f2f; opacity: 0.62; } .cls-11, .cls-2, .cls-4 { stroke: rgba(0,0,0,0); stroke-miterlimit: 10; } .cls-15, .cls-3 { fill: #fff; } .cls-5, .cls-6 { font-size: 20px; font-family: Mohol-Light, Mohol; font-weight: 300; } .cls-15, .cls-5 { letter-spacing: 0.02em; } .cls-6 { letter-spacing: 0.05em; } .cls-7, .cls-9 { fill: none; } .cls-7 { stroke: #000; } .cls-8 { fill: #949494; font-family: Alegreya-Italic, Alegreya; font-style: italic; } .cls-15, .cls-8 { font-size: 16px; } .cls-13, .cls-14, .cls-8 { letter-spacing: 0.01em; } .cls-9 { stroke: #707070; stroke-width: 0.75px; } .cls-10, .cls-11 { fill: #7f7d7d; } .cls-12 { fill: #e1e1e1; } .cls-13 { font-size: 18px; font-family: Mohol-Thin, Mohol; font-weight: 200; } .cls-14 { font-size: 25px; font-family: Mohol-Black, Mohol; font-weight: 800; } .cls-15 { font-family: Mohol-Regular, Mohol; } .cls-16 { filter: url(#Rectángulo_52); } .cls-17 { filter: url(#Rectángulo_15); }</style><filter id="Rectángulo_15" width="1298" height="124" x="-9" y="-6" filterUnits="userSpaceOnUse"><feOffset dy="3"/><feGaussianBlur result="blur" stdDeviation="3"/><feFlood flood-opacity=".102"/><feComposite in2="blur" operator="in"/><feComposite in="SourceGraphic"/></filter><filter id="Rectángulo_52" width="366" height="58" x="455" y="462" filterUnits="userSpaceOnUse"><feOffset dy="3"/><feGaussianBlur result="blur-2" stdDeviation="3"/><feFlood flood-opacity=".161"/><feComposite in2="blur-2" operator="in"/><feComposite in="SourceGraphic"/></filter><clipPath id="clip-resultado_de_búsqueda_nulo"><path d="M0 0h1280v771H0z"/></clipPath></defs><g transform="translate(-605 -228)"><g id="resultado_de_búsqueda_nulo" class="cls-1" data-name="resultado de búsqueda nulo"><g id="Grupo_50" data-name="Grupo 50" transform="translate(420.686 -550.813)"><path id="Trazado_58" d="M253.918 857.157a.457.457 0 0 1-.817.408L219.309 823.6l-33.792 33.965a.452.452 0 0 1-.806-.408l30-38.146c0-.01.011-.021.011-.032a.544.544 0 0 0 0-.43.065.065 0 0 0-.011-.043l-30-38.135a.455.455 0 0 1 .806-.419l33.792 33.976 33.791-33.976a.46.46 0 0 1 .817.419l-30 38.135a.065.065 0 0 0-.011.043.544.544 0 0 0 0 .43c0 .011.011.021.011.032z" data-name="Trazado 58"/></g></g></g></svg>