<svg id="Capa_1" data-name="Capa 1" xmlns="http://www.w3.org/2000/svg" viewBox="0 0 566.93 566.93"><title>favicon_cuadrado</title><path d="M426.14,491.1c0,44.2,34.56,59.47,45,65.9H456.69c-55.46-27.32-98.06,13.67-188.89,9.65h-2.41a22.07,22.07,0,0,0-7.23-.81c-95.65-10.44-164-109.31-162.36-214.6,1.61-111.72,78-206.56,184.06-205.76,72.34.8,128.6,49,157.54,111.72V258c17.68,38.58-147.09,80.37-209,108.5C178.59,389,177,418,178.59,432.42c15.27,60.28,46.62,114.94,92.43,123,46.62,5.62,95.65-4.83,119-24.92,12.86-11.25,28.14-27.33,28.14-112.53l8.84-8ZM171.35,390.63c44.21-39.39,145.48-61.9,176.83-82.79,21.7-15.27,30.54-25.72,19.29-54.66-17.68-54.65-45-99.66-86-100.47-65.91-.8-110.92,114.94-112.53,196.12A377,377,0,0,0,171.35,390.63ZM316,0V51.44L213.15,99.67v-.81L315.23,0Z"/></svg>