<svg xmlns="http://www.w3.org/2000/svg" width="36.099" height="36.1" viewBox="0 0 36.099 36.1">
  <defs>
    <style>
      .cls-1 {
        fill: #222221;
        stroke: rgba(0,0,0,0);
        stroke-miterlimit: 10;
      }
    </style>
  </defs>
  <path id="Unión_3" data-name="Unión 3" class="cls-1" d="M1072-4529.451a17.57,17.57,0,0,1,17.549-17.55,17.57,17.57,0,0,1,17.551,17.55,17.57,17.57,0,0,1-17.551,17.55A17.569,17.569,0,0,1,1072-4529.451Zm1.331,0a16.237,16.237,0,0,0,16.218,16.219,16.239,16.239,0,0,0,16.22-16.219,16.238,16.238,0,0,0-16.22-16.218A16.237,16.237,0,0,0,1073.331-4529.451Zm8.6,4.424a8.956,8.956,0,0,1-1.3-4.662c0-.132,0-.265.007-.4a9.067,9.067,0,0,1,9.085-8.629,9.059,9.059,0,0,1,9.089,8.795c0,.077,0,.153,0,.23a9.058,9.058,0,0,1-9.093,9.024,9.1,9.1,0,0,1-4.392-1.124l-5.036,1.6Zm7.789,2.924a7.625,7.625,0,0,0,7.646-7.585c0-.2-.008-.4-.025-.592a7.631,7.631,0,0,0-7.621-6.994,7.632,7.632,0,0,0-7.607,6.849,7.161,7.161,0,0,0-.038.737,7.512,7.512,0,0,0,1.455,4.448l-.953,2.817,2.937-.936A7.62,7.62,0,0,0,1089.717-4522.1Zm.282-3.956a9.15,9.15,0,0,1-3.806-3.342,5.012,5.012,0,0,1-.8-1.531,2.848,2.848,0,0,1-.114-.754,2.481,2.481,0,0,1,.778-1.848.828.828,0,0,1,.6-.276c.148,0,.3.021.425.021s.319-.077.5.366.636,1.533.69,1.643a.4.4,0,0,1,.017.388,2.764,2.764,0,0,1-.14.264c-.026.034-.051.068-.081.106-.115.128-.234.287-.336.388s-.227.229-.1.451a6.626,6.626,0,0,0,1.239,1.528,6.05,6.05,0,0,0,1.792,1.1c.226.11.354.093.485-.056s.558-.643.708-.864.3-.187.5-.111,1.3.609,1.525.719.37.167.425.255a1.827,1.827,0,0,1-.131,1.052,2.221,2.221,0,0,1-1.5,1.051,3.39,3.39,0,0,1-.5.078A7.015,7.015,0,0,1,1090-4526.058Z" transform="translate(-1071.5 4547.5)"/>
</svg>
