<svg xmlns="http://www.w3.org/2000/svg" width="23" height="23" viewBox="0 0 23 23">
  <path id="instagram" d="M11,22A11,11,0,0,1,3.222,3.222,11,11,0,1,1,18.778,18.778,10.926,10.926,0,0,1,11,22ZM11,4.97c-1.62,0-1.836.006-2.486.036a4.513,4.513,0,0,0-1.465.279,2.974,2.974,0,0,0-1.067.7,2.938,2.938,0,0,0-.7,1.068A4.44,4.44,0,0,0,5,8.514c-.029.657-.036.873-.036,2.486s.007,1.831.036,2.487a4.45,4.45,0,0,0,.281,1.465,3.077,3.077,0,0,0,1.762,1.763A4.515,4.515,0,0,0,8.514,17c.656.029.872.035,2.486.035s1.831-.006,2.486-.035a4.5,4.5,0,0,0,1.464-.282,3.075,3.075,0,0,0,1.764-1.763,4.426,4.426,0,0,0,.28-1.465c.03-.65.037-.867.037-2.487s-.007-1.835-.037-2.486a4.418,4.418,0,0,0-.28-1.464,2.938,2.938,0,0,0-.7-1.068,2.974,2.974,0,0,0-1.068-.7,4.5,4.5,0,0,0-1.464-.279C12.836,4.976,12.62,4.97,11,4.97Zm0,10.975c-1.6,0-1.792-.007-2.437-.034a3.37,3.37,0,0,1-1.12-.208,1.839,1.839,0,0,1-.693-.452,1.87,1.87,0,0,1-.452-.693,3.339,3.339,0,0,1-.208-1.12c-.029-.639-.035-.83-.035-2.437s.006-1.8.035-2.438A3.336,3.336,0,0,1,6.3,7.443,1.992,1.992,0,0,1,7.443,6.3a3.279,3.279,0,0,1,1.12-.21c.645-.028.837-.034,2.437-.034s1.792.006,2.437.034a3.279,3.279,0,0,1,1.12.21,1.842,1.842,0,0,1,.693.449,1.871,1.871,0,0,1,.452.693,3.41,3.41,0,0,1,.208,1.119c.029.641.035.832.035,2.438s-.006,1.8-.035,2.437a3.413,3.413,0,0,1-.208,1.12,1.884,1.884,0,0,1-.452.693,1.843,1.843,0,0,1-.693.452,3.37,3.37,0,0,1-1.12.208C12.792,15.938,12.6,15.945,11,15.945ZM11,7.9A3.1,3.1,0,1,0,14.1,11,3.1,3.1,0,0,0,11,7.9Zm3.219-.846a.723.723,0,1,0,.724.724A.725.725,0,0,0,14.219,7.057ZM11,13.011A2.01,2.01,0,1,1,13.01,11,2.013,2.013,0,0,1,11,13.011Z" transform="translate(0.5 0.5)" fill="#312f2f" stroke="rgba(0,0,0,0)" stroke-miterlimit="10" stroke-width="1" opacity="0.62"/>
</svg>
