<svg xmlns="http://www.w3.org/2000/svg" width="31" height="31" viewBox="0 0 31 31">
  <path id="instagram" d="M-21-8502a14.9,14.9,0,0,1-10.607-4.394A14.9,14.9,0,0,1-36-8517a14.9,14.9,0,0,1,4.393-10.606A14.9,14.9,0,0,1-21-8532a14.9,14.9,0,0,1,10.607,4.394A14.9,14.9,0,0,1-6-8517a14.9,14.9,0,0,1-4.393,10.606A14.9,14.9,0,0,1-21-8502Zm0-23.224c-2.21,0-2.5.009-3.391.049a6.155,6.155,0,0,0-2,.381,4.053,4.053,0,0,0-1.455.951,4.008,4.008,0,0,0-.948,1.456,6.054,6.054,0,0,0-.383,2c-.04.9-.049,1.19-.049,3.391s.009,2.5.049,3.391a6.065,6.065,0,0,0,.383,2,4.039,4.039,0,0,0,.948,1.458,4.038,4.038,0,0,0,1.455.946,6.158,6.158,0,0,0,2,.384c.894.039,1.189.048,3.391.048s2.5-.009,3.391-.048a6.132,6.132,0,0,0,2-.384,4.034,4.034,0,0,0,1.456-.946,4.039,4.039,0,0,0,.948-1.458,6.035,6.035,0,0,0,.381-2c.041-.887.051-1.182.051-3.391s-.01-2.5-.051-3.391a6.026,6.026,0,0,0-.381-2,4.008,4.008,0,0,0-.948-1.456,4.063,4.063,0,0,0-1.456-.951,6.129,6.129,0,0,0-2-.381C-18.5-8525.216-18.791-8525.225-21-8525.225Zm0,14.966c-2.182,0-2.444-.009-3.323-.047a4.592,4.592,0,0,1-1.527-.283,2.51,2.51,0,0,1-.945-.616,2.55,2.55,0,0,1-.616-.945,4.551,4.551,0,0,1-.284-1.527c-.039-.871-.047-1.132-.047-3.323s.008-2.452.047-3.325a4.548,4.548,0,0,1,.284-1.525,2.527,2.527,0,0,1,.616-.945,2.507,2.507,0,0,1,.945-.613,4.485,4.485,0,0,1,1.527-.286c.88-.038,1.142-.047,3.323-.047s2.443.009,3.323.047a4.485,4.485,0,0,1,1.527.286,2.513,2.513,0,0,1,.945.613,2.547,2.547,0,0,1,.616.945,4.65,4.65,0,0,1,.284,1.525c.039.873.047,1.134.047,3.325s-.008,2.452-.047,3.323a4.652,4.652,0,0,1-.284,1.527,2.571,2.571,0,0,1-.616.945,2.517,2.517,0,0,1-.945.616,4.592,4.592,0,0,1-1.527.283C-18.557-8510.268-18.819-8510.259-21-8510.259Zm0-10.965A4.228,4.228,0,0,0-25.223-8517,4.227,4.227,0,0,0-21-8512.778,4.227,4.227,0,0,0-16.778-8517,4.228,4.228,0,0,0-21-8521.224Zm4.39-1.154a.989.989,0,0,0-.987.987.987.987,0,0,0,.987.985.987.987,0,0,0,.987-.985A.989.989,0,0,0-16.611-8522.378ZM-21-8514.26A2.745,2.745,0,0,1-23.743-8517a2.744,2.744,0,0,1,2.742-2.74A2.743,2.743,0,0,1-18.26-8517,2.744,2.744,0,0,1-21-8514.26Z" transform="translate(36.501 8532.501)" fill="#fff" stroke="rgba(0,0,0,0)" stroke-miterlimit="10" stroke-width="1"/>
</svg>
