<svg xmlns="http://www.w3.org/2000/svg" width="23" height="23" viewBox="0 0 23 23">
  <path id="twitter" d="M11,22A11,11,0,0,1,3.222,3.221,11,11,0,0,1,18.778,18.778,10.928,10.928,0,0,1,11,22ZM5.718,15.261h0A6.828,6.828,0,0,0,9.4,16.341a6.593,6.593,0,0,0,4.9-2.034,7.092,7.092,0,0,0,1.935-5.119,4.88,4.88,0,0,0,1.2-1.245,4.828,4.828,0,0,1-1.382.379A2.4,2.4,0,0,0,17.115,6.99a4.785,4.785,0,0,1-1.527.586,2.419,2.419,0,0,0-1.756-.76,2.407,2.407,0,0,0-2.342,2.953A6.844,6.844,0,0,1,6.534,7.255a2.409,2.409,0,0,0,.744,3.212,2.423,2.423,0,0,1-1.09-.3,2.415,2.415,0,0,0,1.929,2.389,2.424,2.424,0,0,1-.631.083,2.473,2.473,0,0,1-.454-.042,2.4,2.4,0,0,0,2.246,1.67,4.861,4.861,0,0,1-2.987,1.03A4.924,4.924,0,0,1,5.718,15.261Z" transform="translate(0.5 0.5)" fill="#312f2f" stroke="rgba(0,0,0,0)" stroke-miterlimit="10" stroke-width="1" opacity="0.62"/>
</svg>
