<svg xmlns="http://www.w3.org/2000/svg" id="artboard-svg" width="38" height="38" viewBox="0 0 38 38"><defs><style>.cls-1 { clip-path: url(#clip-articulos); } .cls-2 { fill: #b3b3b3; } .cls-3 { font-size: 40px; } .cls-25, .cls-3, .cls-4 { font-family: Mohol-Regular, Mohol; } .cls-12, .cls-14, .cls-15, .cls-16, .cls-25, .cls-29, .cls-3, .cls-4, .cls-5, .cls-6, .cls-7, .cls-8, .cls-9 { letter-spacing: 0.01em; } .cls-22, .cls-23, .cls-4 { font-size: 20px; } .cls-14, .cls-15, .cls-16, .cls-17, .cls-25, .cls-5, .cls-6, .cls-7, .cls-9 { font-size: 16px; } .cls-5, .cls-6 { font-family: Mohol-Bold, Mohol; } .cls-15, .cls-5, .cls-6 { font-weight: 700; } .cls-27, .cls-6 { fill: #7f7d7d; } .cls-29, .cls-7 { font-family: Mohol-Thin, Mohol; font-weight: 200; } .cls-8 { font-size: 12px; } .cls-22, .cls-23, .cls-8 { font-family: Mohol-Light, Mohol; font-weight: 300; } .cls-9 { font-family: CooperBlackStd, Cooper Std; } .cls-10, .cls-11, .cls-18, .cls-24, .cls-26, .cls-31 { fill: none; } .cls-10, .cls-24 { stroke: #000; } .cls-10, .cls-11, .cls-26 { stroke-width: 0.5px; } .cls-11, .cls-18 { stroke: #707070; } .cls-12, .cls-29 { font-size: 18px; } .cls-12, .cls-16 { font-family: Alegreya-Medium, Alegreya; } .cls-12, .cls-16, .cls-17 { font-weight: 500; } .cls-13, .cls-14 { font-family: Alegreya-ExtraBold, Alegreya; font-weight: 800; } .cls-15 { font-family: Alegreya-BoldItalic, Alegreya; } .cls-15, .cls-17 { font-style: italic; } .cls-17 { font-family: Alegreya-MediumItalic, Alegreya; } .cls-17, .cls-22 { letter-spacing: 0.02em; } .cls-19 { fill: #222221; } .cls-20 { fill: #fff; } .cls-21, .cls-27 { stroke: rgba(0,0,0,0); stroke-miterlimit: 10; } .cls-23 { letter-spacing: 0.05em; } .cls-26 { stroke: #c8c8c8; } .cls-28 { fill: #e1e1e1; } .cls-30 { stroke: none; } .cls-32 { filter: url(#Rectángulo_15); }</style><filter id="Rectángulo_15" width="1298" height="124" x="-9" y="-6" filterUnits="userSpaceOnUse"><feOffset dy="3"/><feGaussianBlur result="blur" stdDeviation="3"/><feFlood flood-opacity=".102"/><feComposite in2="blur" operator="in"/><feComposite in="SourceGraphic"/></filter><clipPath id="clip-articulos"><path d="M0 0h1280v2341H0z"/></clipPath></defs><g transform="translate(-100 -399)"><g id="articulos" class="cls-1"><g id="Grupo_29" data-name="Grupo 29" transform="translate(-159.366 271.245)"><g id="Grupo_27" data-name="Grupo 27" transform="translate(259.366 127.755)"><path id="Trazado_29" d="M276.87 162.761a17.5 17.5 0 1 1 17.5-17.5 17.523 17.523 0 0 1-17.5 17.5zm0-33.679a16.176 16.176 0 1 0 16.176 16.176 16.195 16.195 0 0 0-16.176-16.176z" class="cls-19" data-name="Trazado 29" transform="translate(-259.366 -127.755)"/></g></g></g><g id="articulos" class="cls-1"><g id="Grupo_29" data-name="Grupo 29" transform="translate(-159.366 271.245)"><g id="Grupo_28" data-name="Grupo 28" transform="translate(268.782 138.852)"><path id="Trazado_30" d="M270.007 153.225a10.471 10.471 0 0 0 16.108-9.3 7.463 7.463 0 0 0 1.836-1.906 7.342 7.342 0 0 1-2.114.58 3.687 3.687 0 0 0 1.618-2.037 7.364 7.364 0 0 1-2.337.894 3.684 3.684 0 0 0-6.274 3.358 10.448 10.448 0 0 1-7.588-3.847 3.686 3.686 0 0 0 1.139 4.915 3.669 3.669 0 0 1-1.668-.461 3.687 3.687 0 0 0 2.953 3.657 3.685 3.685 0 0 1-1.662.062 3.683 3.683 0 0 0 3.439 2.557 7.4 7.4 0 0 1-5.45 1.528z" class="cls-19" data-name="Trazado 30" transform="translate(-270.007 -140.296)"/></g></g></g></g></svg>