<svg xmlns="http://www.w3.org/2000/svg" width="31" height="31.002" viewBox="0 0 31 31.002">
  <path id="twitter" d="M-37-8499a14.9,14.9,0,0,1-10.608-4.394A14.907,14.907,0,0,1-52-8514a14.907,14.907,0,0,1,4.393-10.607A14.9,14.9,0,0,1-37-8529a14.9,14.9,0,0,1,10.606,4.394A14.907,14.907,0,0,1-22-8514a14.907,14.907,0,0,1-4.393,10.607A14.9,14.9,0,0,1-37-8499Zm-7.2-9.19h0a9.309,9.309,0,0,0,5.026,1.472,8.989,8.989,0,0,0,6.683-2.773,9.671,9.671,0,0,0,2.639-6.98,6.643,6.643,0,0,0,1.637-1.7,6.573,6.573,0,0,1-1.885.517,3.269,3.269,0,0,0,1.443-1.816,6.527,6.527,0,0,1-2.082.8,3.3,3.3,0,0,0-2.394-1.036,3.26,3.26,0,0,0-2.568,1.241,3.263,3.263,0,0,0-.626,2.786,9.332,9.332,0,0,1-6.759-3.429,3.286,3.286,0,0,0,1.014,4.38,3.306,3.306,0,0,1-1.486-.411,3.294,3.294,0,0,0,2.63,3.258,3.311,3.311,0,0,1-.86.113,3.351,3.351,0,0,1-.62-.058,3.277,3.277,0,0,0,3.062,2.277,6.629,6.629,0,0,1-4.073,1.4A6.769,6.769,0,0,1-44.2-8508.189Z" transform="translate(52.499 8529.501)" fill="#fff" stroke="rgba(0,0,0,0)" stroke-miterlimit="10" stroke-width="1"/>
</svg>
