<svg xmlns="http://www.w3.org/2000/svg" id="artboard-svg" width="261" height="68" viewBox="0 0 261 68"><defs><style>.cls-1 { clip-path: url(#clip-Home); } .cls-2 { fill: #cecece; } .cls-3, .cls-4, .cls-5, .cls-6 { fill: #fff; } .cls-3 { stroke: rgba(0,0,0,0); stroke-miterlimit: 10; } .cls-4, .cls-5 { font-size: 20px; letter-spacing: 0.02em; } .cls-4 { font-family: Mohol-Black, Mohol; font-weight: 800; } .cls-5 { font-family: Mohol-Regular, Mohol; }</style><clipPath id="clip-Home"><path d="M0 0h1280v800H0z"/></clipPath></defs><g transform="translate(-918 -41)"><g id="Home" class="cls-1"><path id="Unión_1" d="M71.746-2081.2c-.173-10.253 15.293-12.513 21.29-15.554 4.431-2.259 5.561-8.167 5.561-10.34-.175-5.821-3.389-8.341-7.56-8.515-9.993-.347-14.511 3.476-14.251 16.421l-.868.87v-8.6c0-4.953-.087-6.343-2.52-7.646v-.956c5.063 2.558 6.135 1.4 9.157.241a21.609 21.609 0 0 1 8.744-1.283c5.908.086 13.989 3.562 13.989 8.862l.261 23.982c.087 7.994 1.042 10.687 3.389 10.687h4.518c2.6 0 4.364-3.387 4.364-14.944l.87.868c.26 9.038 1.65 10.776 3.041 12.165 1.911 2.085 6.255 3.127 11.122 3.041 8.688-.087 10.165-4.345 10.165-7.907-.085-4.432-2.605-6.43-4.605-7.906-1.129-.869-4.17-1.825-7.124-2.78-7.126-1.825-15.641-3.389-16.162-12.947-.261-8.862 7.559-12.859 13.468-13.12a23.755 23.755 0 0 1 9.089 1.224c2.119.714 3.568 1.427 5.4 1.21a7.913 7.913 0 0 0 3.587-1.392h17.2v34.235c0 6.082 1.431 8.254 3.712 8.254h5.054c1.711 0 3.712-2.233 3.712-8.254v-6.69l.869.868c.261 9.038 1.651 10.776 3.041 12.165 1.911 2.085 6.256 3.127 11.122 3.041 8.689-.087 10.165-4.345 10.165-7.907-.087-4.432-2.607-6.43-4.605-7.906-1.13-.869-4.171-1.825-7.124-2.78-7.125-1.825-15.641-3.389-16.162-12.947-.26-8.862 7.559-12.859 13.468-13.12a23.78 23.78 0 0 1 9.09 1.224c3.3 1.112 4.977 2.222 8.985-.182v.956c-1.479 1.13-2.435 2-2.695 6.691l-.086 9.558-.869-.87c.174-9.643-.956-11.469-2.26-12.946-2-2.346-6.429-3.909-12.251-3.476-6.082.435-8.863 4.6-9.036 9.123 0 4.867 4.17 6.431 5.126 6.779 1.3.52 4.518 1.477 7.995 2.52 6.517 2 13.9 4 14.511 13.034.346 7.385-5.04 13.12-14.25 13.12-11.383 0-12.424-4-17.9-1.044h-17.039v-34.229c0-6.081-1.431-8.26-3.711-8.26-2.527 0-2.527.014-5.054.014-2.281 0-3.707 2.165-3.707 8.247v7.994l-.951-.875c.174-9.643-.956-11.469-2.259-12.946-2-2.346-6.429-3.909-12.251-3.476-6.083.435-8.863 4.6-9.037 9.123 0 4.867 4.171 6.431 5.126 6.779 1.3.52 4.518 1.477 7.995 2.52 6.516 2 13.9 4 14.51 13.034.348 7.385-5.04 13.12-14.249 13.12-11.383 0-13.054-4-18.528-1.044H98.336l.086-10.427c-3.649 6-9.3 11.035-15.641 11.47q-.476.036-.944.035c-5.42-.006-10.008-3.553-10.091-10.206zm9.473-9.732c-2.695 2.259-4 6.6-1.825 11.817 2.085 5.125 7.907 5.561 12.6 2.433 3.388-2.259 5.3-5.648 6.43-7.386l.086-15.639c-4.258 5.207-13.991 5.993-17.291 8.774zm-114.621 19.9h-.26a2.4 2.4 0 0 0-.782-.087c-10.34-1.128-17.726-11.794-17.552-23.156.174-12.054 8.428-22.288 19.9-22.2 7.82.087 13.9 5.291 17.031 12.055v.086c1.912 4.163-15.9 8.673-22.591 11.708-5.387 2.429-5.561 5.551-5.387 7.112 1.651 6.505 5.039 12.4 9.992 13.27 5.04.607 10.34-.52 12.86-2.688 1.391-1.214 3.041-2.948 3.041-12.142l.956-.867-.086 8.76c0 4.77 3.736 6.418 4.865 7.112h-1.564c-3.615-1.777-6.724-.876-10.775.025a36.565 36.565 0 0 1-8.287 1.044q-.664 0-1.359-.035zm-10.687-23.5a40.638 40.638 0 0 0 .26 4.51c4.779-4.25 15.728-6.679 19.116-8.934 2.346-1.648 3.3-2.775 2.086-5.9-1.913-5.9-4.866-10.755-9.3-10.842H-32c-7.085-.002-11.917 12.43-12.09 21.159zm65.772 22.46v-33.739a34.6 34.6 0 0 0-.261-4.6 1.255 1.255 0 0 0-.173-.522c-1.478-4.6-7.907-3.9-12.252-.867A39.989 39.989 0 0 0 1-2104.257l.087 20.556c.087 7.979 1.39 10.668 3.823 10.668h4.434l.868.955H-6.036v-31.311c-.086-8.413-.782-11.1-3.128-11.1h-4l-.869-.954H1.089v.954L1-2105.557c4.605-5.811 10.774-10.407 17.292-10.842h.086a13.621 13.621 0 0 1 1.651.087c4.953.52 8.515 4.25 8.515 7.719l.086 27.322c0 6.071 1.13 8.239 3.477 8.239H38.7c2.174 0 3.452-2.168 3.452-8.239v-22.985c-.347-4.6-1.912-10.234-6.864-10.234l-.869-.954h7.911l.087-8.326c0-8.761 9.123-11.536 15.2-11.624h.087c9.992 0 11.21 4.251 16.6 1.389h1.652a7.312 7.312 0 0 0-4.779 7.112v19.515l-.957-.867v-2.861c0-3.557-7.646-3.383-9.644-3.383h-.869c-10.166 0-10.426 6.764-10.426 11.535l.086 22.2c.347 5.638 1.651 7.719 3.736 7.719h4.518l.869.955zm-.087-37.122a3.308 3.308 0 0 0-.052-.525zm27.6-13.01v6.765h11.3c2 0 9.731.26 9.731-2.082v-.607c0-10.929-1.043-12.317-2.78-13.878-2-1.909-5.214-2.515-9.211-2.429h-.087c-6.435-.005-8.781 5.72-8.955 12.225zm-88.505.7l11.035-10.668h.087v5.551l-11.122 5.2zm198.907-1.282c0-.869-.869-6.429-7.646-6.429v-.087s7.733-.173 7.733-6.69h.087s.086 6.6 7.038 6.6v.085s-7.125.087-7.125 6.517z" class="cls-3" data-name="Unión 1" transform="translate(970.357 2177)"/></g></g></svg>